<svg id="Layer_1" height="512" viewBox="0 0 100 100" width="512" xmlns="http://www.w3.org/2000/svg"><g><path d="m25.506 33.418c4.05 0 7.344-3.294 7.344-7.344 0-4.049-3.294-7.344-7.344-7.344-4.049 0-7.343 3.294-7.343 7.344s3.294 7.344 7.343 7.344zm0-11.688c2.396 0 4.344 1.949 4.344 4.344 0 2.396-1.948 4.344-4.344 4.344-2.395 0-4.343-1.949-4.343-4.344s1.948-4.344 4.343-4.344z"/><path d="m37.428 55.465c-.087-.019-.213-.043-.367-.05-.318-.046-.601-.034-.834-.023l-13.194.007c-.828 0-1.5.671-1.5 1.5s.672 1.5 1.5 1.5h12.979c.118 0 .234-.005.35-.01.092-.004.18-.016.261-.006.082.018.166.028.25.032.103.022.257.049.442.049.858 0 1.557.698 1.557 1.556v24.922c0 .858-.698 1.556-1.557 1.556-.857 0-1.555-.698-1.555-1.556v-19.325c0-.829-.672-1.5-1.5-1.5h-17.497c-1.577 0-2.86-1.283-2.86-2.859 0-.167.027-.328.054-.488.025-.149.027-.301.007-.451l-.018-.121c-.019-.134-.043-.269-.043-.409v-19.615c0-2.104 1.712-3.815 3.815-3.815s3.814 1.711 3.814 3.815v6.445c0 .829.672 1.5 1.5 1.5h13.578c.552 0 1 .449 1 1s-.448 1-1 1h-11.078c-.181 0-.36.033-.529.097l-3.867 1.458c-.062.023-.122.051-.181.082l-1.65.887.048-10.958c.004-.828-.665-1.503-1.493-1.506-.003 0-.005 0-.007 0-.825 0-1.496.667-1.5 1.494l-.059 13.479c-.002.529.274 1.02.728 1.292s1.018.286 1.482.036l3.783-2.034 3.519-1.326h10.804c2.206 0 4-1.794 4-4s-1.794-4-4-4h-12.078v-4.945c0-3.758-3.057-6.815-6.814-6.815s-6.815 3.057-6.815 6.815v19.615c0 .246.025.485.058.723-.032.23-.058.477-.058.746 0 3.23 2.629 5.859 5.86 5.859h15.996v17.824c0 2.512 2.043 4.556 4.555 4.556 2.513 0 4.557-2.043 4.557-4.556v-24.923c-.001-2.474-1.983-4.494-4.443-4.554z"/><path d="m29.233 68.483h-20.103v-30.333c0-.829-.672-1.5-1.5-1.5s-1.5.671-1.5 1.5v31.833c0 .829.672 1.5 1.5 1.5h1.88v16.514c0 .829.672 1.5 1.5 1.5s1.5-.671 1.5-1.5v-16.514h11v16.514c0 .829.672 1.5 1.5 1.5s1.5-.671 1.5-1.5v-16.514h2.724c.828 0 1.5-.671 1.5-1.5s-.672-1.5-1.501-1.5z"/><path d="m89.098 61.258c0-.269-.025-.516-.058-.746.032-.237.058-.477.058-.723v-19.615c0-3.758-3.058-6.815-6.815-6.815s-6.814 3.057-6.814 6.815v15.224h-11.48l-.216-.007c-.294-.013-.579-.013-.832.023-.146.006-.271.029-.368.05-2.46.06-4.443 2.08-4.443 4.554v24.922c0 2.512 2.044 4.556 4.557 4.556 2.512 0 4.555-2.043 4.555-4.556v-17.823h15.996c3.231 0 5.86-2.628 5.86-5.859zm-23.357 2.859c-.828 0-1.5.671-1.5 1.5v19.324c0 .858-.697 1.556-1.555 1.556s-1.557-.698-1.557-1.556v-24.922c0-.858.698-1.556 1.557-1.556.177 0 .325-.025.438-.048.107-.002.217-.014.309-.033l.206.007c.115.005.231.01.35.01h12.976.003c.003 0 .005-.001.008-.001.146 0 .285-.028.419-.068.016-.004.031-.002.046-.007l5.238-1.74c.616-.204 1.03-.781 1.027-1.43l-.059-13.479c-.004-.826-.675-1.494-1.5-1.494-.002 0-.004 0-.007 0-.828.003-1.497.678-1.493 1.506l.054 12.392-2.233.742v-14.646c0-2.104 1.711-3.815 3.814-3.815s3.815 1.711 3.815 3.815v19.616c0 .14-.024.274-.043.409l-.018.121c-.021.15-.019.302.007.451.026.16.054.32.054.488 0 1.576-1.283 2.859-2.86 2.859h-17.496z"/><path d="m82.147 31.264c4.049 0 7.343-3.294 7.343-7.344 0-4.049-3.294-7.344-7.343-7.344-4.05 0-7.344 3.294-7.344 7.344.001 4.049 3.295 7.344 7.344 7.344zm0-11.688c2.395 0 4.343 1.949 4.343 4.344 0 2.396-1.948 4.344-4.343 4.344-2.396 0-4.344-1.949-4.344-4.344.001-2.396 1.949-4.344 4.344-4.344z"/><path d="m92.37 36.65c-.828 0-1.5.671-1.5 1.5v30.333h-20.103c-.828 0-1.5.671-1.5 1.5s.672 1.5 1.5 1.5h2.724v16.514c0 .829.672 1.5 1.5 1.5s1.5-.671 1.5-1.5v-16.514h11v16.514c0 .829.672 1.5 1.5 1.5s1.5-.671 1.5-1.5v-16.514h1.88c.828 0 1.5-.671 1.5-1.5v-31.833c-.001-.829-.673-1.5-1.501-1.5z"/><path d="m71.146 46.019c.01-.07.016-.141.016-.212l.04-29.007c0-.002.001-.003.001-.005s0-.003 0-.005v-.359c0-.398-.158-.779-.439-1.061l-6.429-6.428c-.281-.281-.663-.439-1.061-.439h-16.81c-3.01 0-5.458 2.447-5.458 5.456v31.266c0 3.008 2.448 5.456 5.458 5.456h19.283c2.69-.002 5.01-2.005 5.399-4.662zm-4.701-30.725h-3.671v-3.671zm-22.439 29.93v-31.266c0-1.354 1.103-2.456 2.458-2.456h13.311v5.292c0 .829.672 1.5 1.5 1.5h6.929v14.6l-.042 12.783c-.213 1.148-1.234 2.002-2.414 2.002h-19.284c-1.356 0-2.458-1.101-2.458-2.455z"/><path d="m48.963 27.482c.279.258.643.398 1.018.398.069 0 .14-.005.209-.015.445-.063.84-.322 1.073-.707l2.103-3.462c.43-.708.204-1.631-.504-2.061-.706-.428-1.63-.205-2.061.503l-1.15 1.895-.26-.24c-.606-.561-1.557-.525-2.12.084-.562.609-.523 1.558.085 2.12z"/><path d="m63.617 23.15h-6.72c-.828 0-1.5.671-1.5 1.5s.672 1.5 1.5 1.5h6.72c.828 0 1.5-.671 1.5-1.5s-.672-1.5-1.5-1.5z"/><path d="m52.861 29.548c-.706-.429-1.63-.206-2.061.503l-1.15 1.894-.26-.24c-.606-.56-1.558-.524-2.119.084-.563.608-.524 1.558.084 2.12l1.607 1.484c.279.257.643.398 1.018.398.069 0 .139-.005.209-.015.445-.063.84-.322 1.073-.707l2.103-3.461c.43-.707.204-1.629-.504-2.06z"/><path d="m63.617 31.061h-6.72c-.828 0-1.5.671-1.5 1.5s.672 1.5 1.5 1.5h6.72c.828 0 1.5-.671 1.5-1.5s-.672-1.5-1.5-1.5z"/><path d="m52.862 36.967c-.709-.43-1.631-.206-2.062.503l-1.15 1.894-.26-.24c-.608-.56-1.557-.524-2.12.085-.562.608-.523 1.558.085 2.12l1.607 1.483c.279.257.644.397 1.018.397.069 0 .14-.005.209-.015.445-.063.839-.322 1.073-.707l2.103-3.46c.43-.708.205-1.63-.503-2.06z"/><path d="m63.144 38.479h-6.246c-.828 0-1.5.671-1.5 1.5s.672 1.5 1.5 1.5h6.246c.828 0 1.5-.671 1.5-1.5s-.672-1.5-1.5-1.5z"/></g></svg>