<svg width="510" height="510" viewBox="0 0 510 510" fill="none" xmlns="http://www.w3.org/2000/svg">
<path fill-rule="evenodd" clip-rule="evenodd" d="M156.456 384.26H43.782C24.006 384.26 8 368.248 8 348.502V118.437C8 98.6629 24.008 82.6549 43.782 82.6549H78.413C77.703 80.8339 76.592 79.0939 75.037 77.5379C69.781 72.2819 69.781 63.7559 75.037 58.4999L88.966 44.5699C94.222 39.3139 102.749 39.3139 108.005 44.5699C117.309 53.8749 133.251 47.2769 133.251 34.1139C133.251 26.6789 139.281 20.6489 146.715 20.6489H166.4C173.835 20.6489 179.865 26.6789 179.865 34.1139C179.865 47.2769 195.807 53.8749 205.111 44.5699C210.364 39.3169 218.908 39.3169 224.161 44.5699L238.079 58.4999C243.335 63.7559 243.335 72.2819 238.079 77.5379C236.524 79.0939 235.413 80.8339 234.703 82.6549H394.654C410.187 82.6549 422.791 95.2579 422.791 110.792V165.671L425.893 168.407H485C489.509 168.407 493.833 170.198 497.021 173.386C500.209 176.574 502 180.898 502 185.407V287.075C502 291.583 500.209 295.907 497.021 299.095C493.833 302.284 489.509 304.075 485 304.075H422.791V348.502C422.791 368.249 406.78 384.26 387.033 384.26H273.468C274.039 404.767 279.171 426.377 285.563 440.321H309.09C322.573 440.321 333.605 451.352 333.605 464.836C333.605 478.319 322.573 489.351 309.09 489.351H121.724C108.241 489.351 97.209 478.319 97.209 464.836C97.209 451.352 108.241 440.321 121.724 440.321H145.182C151.405 426.367 156.089 404.758 156.456 384.26ZM76.572 96.6549H43.782C31.744 96.6549 22 106.4 22 118.437V313.028H408.791V304.075H286.014C282.148 304.075 279.014 300.941 279.014 297.075V136.091C279.014 131.583 280.805 127.259 283.993 124.07C287.181 120.882 291.506 119.091 296.014 119.091H367.309C369.014 119.091 370.66 119.713 371.938 120.84L408.791 153.329V110.792C408.791 102.987 402.458 96.6549 394.654 96.6549H236.547C239.119 100.27 243.311 102.784 248.535 102.784C255.994 102.784 262 108.814 262 116.249V135.934C262 143.368 255.994 149.398 248.535 149.398C235.38 149.398 228.774 165.34 238.079 174.644C243.332 179.897 243.332 188.442 238.079 193.694L224.161 207.612C218.908 212.865 210.364 212.865 205.111 207.612C195.807 198.308 179.865 204.913 179.865 218.069C179.865 225.528 173.835 231.533 166.4 231.533H146.715C139.281 231.533 133.251 225.528 133.251 218.069C133.251 204.897 117.317 198.3 108.005 207.612C102.749 212.868 94.222 212.868 88.968 207.614L75.037 193.694C69.784 188.442 69.784 179.897 75.037 174.644C84.341 165.34 77.744 149.398 64.58 149.398C57.146 149.398 51.116 143.368 51.116 135.934V116.249C51.116 108.814 57.146 102.784 64.58 102.784C69.808 102.784 74 100.27 76.572 96.6549ZM22 327.028V348.502C22 360.519 31.746 370.26 43.782 370.26H387.033C399.049 370.26 408.791 360.518 408.791 348.502V327.028H22ZM296.014 290.075H485C485.796 290.075 486.559 289.759 487.121 289.196C487.684 288.633 488 287.87 488 287.075V185.407C488 184.611 487.684 183.848 487.121 183.285C486.559 182.723 485.796 182.407 485 182.407H293.014V287.075C293.014 287.87 293.33 288.633 293.893 289.196C294.455 289.759 295.219 290.075 296.014 290.075ZM293.014 168.407H404.723L364.664 133.091H296.014C295.219 133.091 294.455 133.407 293.893 133.97C293.33 134.533 293.014 135.296 293.014 136.091V168.407ZM270.406 440.321C264.515 425.045 259.995 404.169 259.468 384.26H170.453C170.104 404.175 165.954 425.052 160.268 440.321H270.406ZM309.09 454.321H121.724C115.941 454.321 111.209 459.052 111.209 464.836C111.209 470.619 115.941 475.351 121.724 475.351H309.09C314.873 475.351 319.605 470.619 319.605 464.836C319.605 459.052 314.873 454.321 309.09 454.321ZM199.572 355.644C195.709 355.644 192.572 352.507 192.572 348.644C192.572 344.78 195.709 341.644 199.572 341.644H231.218C235.082 341.644 238.218 344.78 238.218 348.644C238.218 352.507 235.082 355.644 231.218 355.644H199.572ZM385.937 263.57C384.358 267.096 380.213 268.677 376.687 267.098C373.161 265.519 371.581 261.374 373.16 257.848L395.077 208.911C396.656 205.385 400.801 203.804 404.327 205.384C407.853 206.963 409.433 211.107 407.854 214.633L385.937 263.57ZM418.236 219.834C414.89 217.903 413.742 213.618 415.673 210.272C417.605 206.926 421.89 205.778 425.236 207.71L464.152 230.178C466.318 231.429 467.652 233.74 467.652 236.241C467.652 238.742 466.318 241.052 464.152 242.303L425.236 264.771C421.89 266.703 417.605 265.555 415.673 262.209C413.742 258.863 414.89 254.579 418.236 252.647L446.652 236.241L418.236 219.834ZM362.349 252.647C365.695 254.579 366.843 258.863 364.911 262.209C362.979 265.555 358.695 266.703 355.349 264.771L316.432 242.303C314.266 241.052 312.932 238.742 312.932 236.241C312.932 233.74 314.266 231.429 316.432 230.178L355.349 207.71C358.695 205.778 362.979 206.926 364.911 210.272C366.843 213.618 365.695 217.903 362.349 219.834L333.932 236.241L362.349 252.647ZM65.116 116.779V135.403C90.207 135.828 102.747 166.131 85.308 184.166L98.489 197.336C116.539 179.889 146.821 192.429 147.246 217.533H165.87C166.295 192.456 196.598 179.902 214.633 197.341L227.808 184.166C210.369 166.131 222.923 135.829 248 135.403V116.779C222.926 116.354 210.371 86.0579 227.803 68.0219L214.633 54.8409C196.598 72.2799 166.295 59.7409 165.87 34.6489H147.246C146.821 59.7379 116.524 72.2779 98.489 54.8469L85.313 68.0219C102.744 86.0579 90.205 116.354 65.116 116.779ZM156.564 180.397C126.651 180.397 102.264 155.997 102.264 126.097C102.264 96.1839 126.651 71.7969 156.564 71.7969C186.463 71.7969 210.863 96.1839 210.863 126.097C210.863 155.997 186.463 180.397 156.564 180.397ZM156.564 166.397C178.754 166.397 196.863 148.288 196.863 126.097C196.863 103.897 178.754 85.7969 156.564 85.7969C134.363 85.7969 116.264 103.897 116.264 126.097C116.264 148.288 134.363 166.397 156.564 166.397Z" fill="white"/>
</svg>
