<svg width="132" height="137" viewBox="0 0 132 137" fill="none" xmlns="http://www.w3.org/2000/svg">
<path fill-rule="evenodd" clip-rule="evenodd" d="M112.566 20.2155C100.272 7.483 83.9223 0.467916 66.5044 0.460449C30.6131 0.460449 1.40279 30.6772 1.38835 67.8161C1.38354 79.6882 4.38157 91.2774 10.0801 101.493L0.842163 136.398L35.3612 127.031C44.8726 132.398 55.5806 135.226 66.4779 135.23H66.5052C102.392 135.23 131.606 105.011 131.62 67.87C131.627 49.8705 124.86 32.9472 112.566 20.2155ZM66.5044 123.854H66.4819C56.7708 123.85 47.2466 121.15 38.9359 116.05L36.9604 114.836L16.4763 120.395L21.9438 99.7345L20.6566 97.6163C15.2388 88.702 12.3779 78.3988 12.3827 67.8202C12.3939 36.9513 36.6733 11.8372 66.526 11.8372C80.982 11.8422 94.571 17.6733 104.789 28.2561C115.007 38.8389 120.631 52.9056 120.626 67.8658C120.613 98.7372 96.3355 123.854 66.5044 123.854ZM96.1911 81.9217C94.5646 81.0788 86.565 77.0083 85.0732 76.4457C83.583 75.884 82.4971 75.6044 81.4135 77.2887C80.3283 78.973 77.2108 82.7647 76.2612 83.8873C75.3116 85.0107 74.3636 85.1517 72.7362 84.3088C71.1089 83.4666 65.8668 81.6886 59.6518 75.9545C54.8155 71.4916 51.5503 65.9799 50.6007 64.2957C49.6527 62.6097 50.5927 61.7866 51.3145 60.8607C53.0758 58.5981 54.8395 56.226 55.3817 55.1034C55.9247 53.98 55.6528 52.9968 55.2453 52.1547C54.8395 51.3126 51.5856 43.028 50.2302 39.657C48.9084 36.3764 47.5682 36.8194 46.5689 36.768C45.6209 36.719 44.5357 36.7091 43.4505 36.7091C42.3662 36.7091 40.6033 37.1297 39.1115 38.8157C37.6205 40.5008 33.4178 44.5721 33.4178 52.8566C33.4178 61.1411 39.2479 69.1444 40.0611 70.2678C40.8744 71.3912 51.5343 88.3917 67.855 95.6814C71.7369 97.4171 74.767 98.4518 77.1306 99.2275C81.0285 100.509 84.5743 100.328 87.3783 99.8946C90.5046 99.4109 97.0036 95.8225 98.3606 91.8914C99.7161 87.9594 99.7161 84.59 99.3086 83.8873C98.9028 83.1854 97.8176 82.7647 96.1911 81.9217Z" fill="white"/>
</svg>
